<mxfile host="app.diagrams.net" modified="2021-10-07T14:57:35.439Z" agent="5.0 (Windows NT 10.0; Win64; x64) AppleWebKit/537.36 (KHTML, like Gecko) Chrome/94.0.4606.71 Safari/537.36 Edg/94.0.992.38" etag="UvMXLhqfRUbRarijd4wH" version="14.8.4" type="github">
  <diagram id="XacogqaK9mrQ45GxuNSi" name="Page-1">
    <mxGraphModel dx="569" dy="318" grid="1" gridSize="10" guides="1" tooltips="1" connect="1" arrows="1" fold="1" page="1" pageScale="1" pageWidth="850" pageHeight="1100" math="0" shadow="0">
      <root>
        <mxCell id="0" />
        <mxCell id="1" parent="0" />
        <mxCell id="IdqvDO2Dhx7yjKu7YwTV-2" value="" style="rounded=0;whiteSpace=wrap;html=1;" vertex="1" parent="1">
          <mxGeometry x="120" y="210" width="10" height="10" as="geometry" />
        </mxCell>
        <mxCell id="IdqvDO2Dhx7yjKu7YwTV-3" value="" style="rounded=0;whiteSpace=wrap;html=1;" vertex="1" parent="1">
          <mxGeometry x="130" y="210" width="10" height="10" as="geometry" />
        </mxCell>
        <mxCell id="IdqvDO2Dhx7yjKu7YwTV-4" value="" style="rounded=0;whiteSpace=wrap;html=1;fontStyle=1" vertex="1" parent="1">
          <mxGeometry x="140" y="210" width="10" height="10" as="geometry" />
        </mxCell>
        <mxCell id="IdqvDO2Dhx7yjKu7YwTV-11" style="rounded=0;orthogonalLoop=1;jettySize=auto;html=1;exitX=0;exitY=0;exitDx=0;exitDy=0;entryX=0;entryY=1;entryDx=0;entryDy=0;dashed=1;dashPattern=1 1;endArrow=none;endFill=0;" edge="1" parent="1" source="IdqvDO2Dhx7yjKu7YwTV-5" target="IdqvDO2Dhx7yjKu7YwTV-2">
          <mxGeometry relative="1" as="geometry" />
        </mxCell>
        <mxCell id="IdqvDO2Dhx7yjKu7YwTV-12" style="edgeStyle=none;rounded=0;orthogonalLoop=1;jettySize=auto;html=1;exitX=1;exitY=0;exitDx=0;exitDy=0;entryX=0;entryY=1;entryDx=0;entryDy=0;endArrow=none;endFill=0;fillColor=#dae8fc;strokeColor=#6c8ebf;strokeWidth=2;" edge="1" parent="1" source="IdqvDO2Dhx7yjKu7YwTV-5" target="IdqvDO2Dhx7yjKu7YwTV-10">
          <mxGeometry relative="1" as="geometry" />
        </mxCell>
        <mxCell id="IdqvDO2Dhx7yjKu7YwTV-5" value="" style="rounded=0;whiteSpace=wrap;html=1;" vertex="1" parent="1">
          <mxGeometry x="130" y="240" width="10" height="10" as="geometry" />
        </mxCell>
        <mxCell id="IdqvDO2Dhx7yjKu7YwTV-8" value="" style="rounded=0;whiteSpace=wrap;html=1;" vertex="1" parent="1">
          <mxGeometry x="130" y="210" width="10" height="10" as="geometry" />
        </mxCell>
        <mxCell id="IdqvDO2Dhx7yjKu7YwTV-9" value="" style="rounded=0;whiteSpace=wrap;html=1;" vertex="1" parent="1">
          <mxGeometry x="140" y="210" width="10" height="10" as="geometry" />
        </mxCell>
        <mxCell id="IdqvDO2Dhx7yjKu7YwTV-10" value="" style="rounded=0;whiteSpace=wrap;html=1;fontStyle=1" vertex="1" parent="1">
          <mxGeometry x="150" y="210" width="10" height="10" as="geometry" />
        </mxCell>
        <mxCell id="IdqvDO2Dhx7yjKu7YwTV-15" style="edgeStyle=none;rounded=0;orthogonalLoop=1;jettySize=auto;html=1;exitX=1;exitY=0;exitDx=0;exitDy=0;entryX=1;entryY=1;entryDx=0;entryDy=0;endArrow=none;endFill=0;fillColor=#d5e8d4;strokeColor=#82b366;strokeWidth=2;" edge="1" parent="1" source="IdqvDO2Dhx7yjKu7YwTV-13" target="IdqvDO2Dhx7yjKu7YwTV-10">
          <mxGeometry relative="1" as="geometry" />
        </mxCell>
        <mxCell id="IdqvDO2Dhx7yjKu7YwTV-13" value="" style="rounded=0;whiteSpace=wrap;html=1;" vertex="1" parent="1">
          <mxGeometry x="140" y="240" width="10" height="10" as="geometry" />
        </mxCell>
        <mxCell id="IdqvDO2Dhx7yjKu7YwTV-19" style="edgeStyle=none;rounded=0;orthogonalLoop=1;jettySize=auto;html=1;exitX=0;exitY=0;exitDx=0;exitDy=0;entryX=0;entryY=1;entryDx=0;entryDy=0;dashed=1;dashPattern=1 1;endArrow=none;endFill=0;" edge="1" parent="1" source="IdqvDO2Dhx7yjKu7YwTV-16" target="IdqvDO2Dhx7yjKu7YwTV-5">
          <mxGeometry relative="1" as="geometry" />
        </mxCell>
        <mxCell id="IdqvDO2Dhx7yjKu7YwTV-20" style="edgeStyle=none;rounded=0;orthogonalLoop=1;jettySize=auto;html=1;exitX=1;exitY=0;exitDx=0;exitDy=0;entryX=1;entryY=1;entryDx=0;entryDy=0;endArrow=none;endFill=0;fillColor=#d5e8d4;strokeColor=#82b366;strokeWidth=2;" edge="1" parent="1" source="IdqvDO2Dhx7yjKu7YwTV-16" target="IdqvDO2Dhx7yjKu7YwTV-13">
          <mxGeometry relative="1" as="geometry" />
        </mxCell>
        <mxCell id="IdqvDO2Dhx7yjKu7YwTV-16" value="" style="rounded=0;whiteSpace=wrap;html=1;" vertex="1" parent="1">
          <mxGeometry x="140" y="270" width="10" height="10" as="geometry" />
        </mxCell>
        <mxCell id="IdqvDO2Dhx7yjKu7YwTV-27" value="" style="rounded=0;whiteSpace=wrap;html=1;fontStyle=1" vertex="1" parent="1">
          <mxGeometry x="160" y="210" width="10" height="10" as="geometry" />
        </mxCell>
        <mxCell id="IdqvDO2Dhx7yjKu7YwTV-28" value="" style="rounded=0;whiteSpace=wrap;html=1;fontStyle=1" vertex="1" parent="1">
          <mxGeometry x="170" y="210" width="10" height="10" as="geometry" />
        </mxCell>
        <mxCell id="IdqvDO2Dhx7yjKu7YwTV-30" style="edgeStyle=none;rounded=0;orthogonalLoop=1;jettySize=auto;html=1;exitX=1;exitY=0;exitDx=0;exitDy=0;entryX=1;entryY=1;entryDx=0;entryDy=0;dashed=1;dashPattern=1 1;endArrow=none;endFill=0;" edge="1" parent="1" source="IdqvDO2Dhx7yjKu7YwTV-31">
          <mxGeometry relative="1" as="geometry">
            <mxPoint x="170" y="220" as="targetPoint" />
          </mxGeometry>
        </mxCell>
        <mxCell id="IdqvDO2Dhx7yjKu7YwTV-31" value="" style="rounded=0;whiteSpace=wrap;html=1;" vertex="1" parent="1">
          <mxGeometry x="150" y="240" width="10" height="10" as="geometry" />
        </mxCell>
        <mxCell id="IdqvDO2Dhx7yjKu7YwTV-33" style="edgeStyle=none;rounded=0;orthogonalLoop=1;jettySize=auto;html=1;exitX=1;exitY=0;exitDx=0;exitDy=0;entryX=1;entryY=1;entryDx=0;entryDy=0;dashed=1;dashPattern=1 1;endArrow=none;endFill=0;" edge="1" parent="1" source="IdqvDO2Dhx7yjKu7YwTV-34">
          <mxGeometry relative="1" as="geometry">
            <mxPoint x="180" y="220" as="targetPoint" />
          </mxGeometry>
        </mxCell>
        <mxCell id="IdqvDO2Dhx7yjKu7YwTV-34" value="" style="rounded=0;whiteSpace=wrap;html=1;" vertex="1" parent="1">
          <mxGeometry x="160" y="240" width="10" height="10" as="geometry" />
        </mxCell>
        <mxCell id="IdqvDO2Dhx7yjKu7YwTV-35" style="edgeStyle=none;rounded=0;orthogonalLoop=1;jettySize=auto;html=1;exitX=0;exitY=0;exitDx=0;exitDy=0;entryX=0;entryY=1;entryDx=0;entryDy=0;dashed=1;dashPattern=1 1;endArrow=none;endFill=0;" edge="1" parent="1" source="IdqvDO2Dhx7yjKu7YwTV-37">
          <mxGeometry relative="1" as="geometry">
            <mxPoint x="149.81" y="250.00000000000006" as="targetPoint" />
          </mxGeometry>
        </mxCell>
        <mxCell id="IdqvDO2Dhx7yjKu7YwTV-36" style="edgeStyle=none;rounded=0;orthogonalLoop=1;jettySize=auto;html=1;exitX=1;exitY=0;exitDx=0;exitDy=0;entryX=1;entryY=1;entryDx=0;entryDy=0;dashed=1;dashPattern=1 1;endArrow=none;endFill=0;" edge="1" parent="1" source="IdqvDO2Dhx7yjKu7YwTV-37">
          <mxGeometry relative="1" as="geometry">
            <mxPoint x="169.81" y="250.00000000000006" as="targetPoint" />
          </mxGeometry>
        </mxCell>
        <mxCell id="IdqvDO2Dhx7yjKu7YwTV-37" value="" style="rounded=0;whiteSpace=wrap;html=1;" vertex="1" parent="1">
          <mxGeometry x="159.81" y="270" width="10" height="10" as="geometry" />
        </mxCell>
        <mxCell id="IdqvDO2Dhx7yjKu7YwTV-38" value="" style="rounded=0;whiteSpace=wrap;html=1;fontStyle=1" vertex="1" parent="1">
          <mxGeometry x="180" y="210" width="10" height="10" as="geometry" />
        </mxCell>
        <mxCell id="IdqvDO2Dhx7yjKu7YwTV-39" value="" style="rounded=0;whiteSpace=wrap;html=1;fontStyle=1" vertex="1" parent="1">
          <mxGeometry x="190" y="210" width="10" height="10" as="geometry" />
        </mxCell>
        <mxCell id="IdqvDO2Dhx7yjKu7YwTV-46" value="" style="rounded=0;whiteSpace=wrap;html=1;" vertex="1" parent="1">
          <mxGeometry x="170" y="240" width="10" height="10" as="geometry" />
        </mxCell>
        <mxCell id="IdqvDO2Dhx7yjKu7YwTV-47" value="" style="rounded=0;whiteSpace=wrap;html=1;" vertex="1" parent="1">
          <mxGeometry x="180" y="240" width="10" height="10" as="geometry" />
        </mxCell>
        <mxCell id="IdqvDO2Dhx7yjKu7YwTV-49" style="edgeStyle=none;rounded=0;orthogonalLoop=1;jettySize=auto;html=1;exitX=1;exitY=0;exitDx=0;exitDy=0;entryX=1;entryY=1;entryDx=0;entryDy=0;dashed=1;dashPattern=1 1;endArrow=none;endFill=0;" edge="1" parent="1">
          <mxGeometry relative="1" as="geometry">
            <mxPoint x="190" y="220" as="targetPoint" />
            <mxPoint x="180" y="240" as="sourcePoint" />
          </mxGeometry>
        </mxCell>
        <mxCell id="IdqvDO2Dhx7yjKu7YwTV-51" style="edgeStyle=none;rounded=0;orthogonalLoop=1;jettySize=auto;html=1;exitX=1;exitY=0;exitDx=0;exitDy=0;entryX=1;entryY=1;entryDx=0;entryDy=0;endArrow=none;endFill=0;fillColor=#f8cecc;strokeColor=#b85450;strokeWidth=2;" edge="1" parent="1">
          <mxGeometry relative="1" as="geometry">
            <mxPoint x="200" y="220" as="targetPoint" />
            <mxPoint x="190" y="240" as="sourcePoint" />
          </mxGeometry>
        </mxCell>
        <mxCell id="IdqvDO2Dhx7yjKu7YwTV-52" style="edgeStyle=none;rounded=0;orthogonalLoop=1;jettySize=auto;html=1;exitX=0;exitY=0;exitDx=0;exitDy=0;entryX=0;entryY=1;entryDx=0;entryDy=0;dashed=1;dashPattern=1 1;endArrow=none;endFill=0;" edge="1" parent="1" source="IdqvDO2Dhx7yjKu7YwTV-54">
          <mxGeometry relative="1" as="geometry">
            <mxPoint x="169.81000000000006" y="250.00000000000006" as="targetPoint" />
          </mxGeometry>
        </mxCell>
        <mxCell id="IdqvDO2Dhx7yjKu7YwTV-53" style="edgeStyle=none;rounded=0;orthogonalLoop=1;jettySize=auto;html=1;exitX=1;exitY=0;exitDx=0;exitDy=0;entryX=1;entryY=1;entryDx=0;entryDy=0;endArrow=none;endFill=0;fillColor=#f8cecc;strokeColor=#b85450;strokeWidth=2;" edge="1" parent="1" source="IdqvDO2Dhx7yjKu7YwTV-54">
          <mxGeometry relative="1" as="geometry">
            <mxPoint x="189.81000000000006" y="250.00000000000006" as="targetPoint" />
          </mxGeometry>
        </mxCell>
        <mxCell id="IdqvDO2Dhx7yjKu7YwTV-54" value="" style="rounded=0;whiteSpace=wrap;html=1;" vertex="1" parent="1">
          <mxGeometry x="179.81" y="270" width="10" height="10" as="geometry" />
        </mxCell>
        <mxCell id="IdqvDO2Dhx7yjKu7YwTV-56" style="edgeStyle=none;rounded=0;orthogonalLoop=1;jettySize=auto;html=1;exitX=0;exitY=0;exitDx=0;exitDy=0;entryX=0;entryY=1;entryDx=0;entryDy=0;dashed=1;dashPattern=1 1;endArrow=none;endFill=0;" edge="1" parent="1" source="IdqvDO2Dhx7yjKu7YwTV-55" target="IdqvDO2Dhx7yjKu7YwTV-16">
          <mxGeometry relative="1" as="geometry" />
        </mxCell>
        <mxCell id="IdqvDO2Dhx7yjKu7YwTV-57" style="edgeStyle=none;rounded=0;orthogonalLoop=1;jettySize=auto;html=1;exitX=1;exitY=0;exitDx=0;exitDy=0;entryX=1;entryY=1;entryDx=0;entryDy=0;endArrow=none;endFill=0;fillColor=#f8cecc;strokeColor=#b85450;strokeWidth=2;" edge="1" parent="1" source="IdqvDO2Dhx7yjKu7YwTV-55" target="IdqvDO2Dhx7yjKu7YwTV-54">
          <mxGeometry relative="1" as="geometry" />
        </mxCell>
        <mxCell id="IdqvDO2Dhx7yjKu7YwTV-55" value="" style="rounded=0;whiteSpace=wrap;html=1;" vertex="1" parent="1">
          <mxGeometry x="159.81" y="300" width="10" height="10" as="geometry" />
        </mxCell>
        <mxCell id="IdqvDO2Dhx7yjKu7YwTV-58" style="edgeStyle=none;rounded=0;orthogonalLoop=1;jettySize=auto;html=1;exitX=0;exitY=0;exitDx=0;exitDy=0;entryX=0;entryY=1;entryDx=0;entryDy=0;dashed=1;dashPattern=1 1;endArrow=none;endFill=0;" edge="1" parent="1" source="IdqvDO2Dhx7yjKu7YwTV-60">
          <mxGeometry relative="1" as="geometry">
            <mxPoint x="159.81" y="280.00000000000006" as="targetPoint" />
          </mxGeometry>
        </mxCell>
        <mxCell id="IdqvDO2Dhx7yjKu7YwTV-59" style="edgeStyle=none;rounded=0;orthogonalLoop=1;jettySize=auto;html=1;exitX=1;exitY=0;exitDx=0;exitDy=0;entryX=1;entryY=1;entryDx=0;entryDy=0;endArrow=none;endFill=0;fillColor=#fff2cc;strokeColor=#d6b656;strokeWidth=2;" edge="1" parent="1" source="IdqvDO2Dhx7yjKu7YwTV-60">
          <mxGeometry relative="1" as="geometry">
            <mxPoint x="209.62000000000006" y="280.00000000000006" as="targetPoint" />
          </mxGeometry>
        </mxCell>
        <mxCell id="IdqvDO2Dhx7yjKu7YwTV-60" value="" style="rounded=0;whiteSpace=wrap;html=1;" vertex="1" parent="1">
          <mxGeometry x="179.62" y="300" width="10" height="10" as="geometry" />
        </mxCell>
        <mxCell id="IdqvDO2Dhx7yjKu7YwTV-61" value="" style="rounded=0;whiteSpace=wrap;html=1;fontStyle=1" vertex="1" parent="1">
          <mxGeometry x="210.19" y="210" width="10" height="10" as="geometry" />
        </mxCell>
        <mxCell id="IdqvDO2Dhx7yjKu7YwTV-62" value="" style="rounded=0;whiteSpace=wrap;html=1;" vertex="1" parent="1">
          <mxGeometry x="190.19" y="240" width="10" height="10" as="geometry" />
        </mxCell>
        <mxCell id="IdqvDO2Dhx7yjKu7YwTV-63" value="" style="rounded=0;whiteSpace=wrap;html=1;" vertex="1" parent="1">
          <mxGeometry x="200.19" y="240" width="10" height="10" as="geometry" />
        </mxCell>
        <mxCell id="IdqvDO2Dhx7yjKu7YwTV-64" style="edgeStyle=none;rounded=0;orthogonalLoop=1;jettySize=auto;html=1;exitX=1;exitY=0;exitDx=0;exitDy=0;entryX=1;entryY=1;entryDx=0;entryDy=0;endArrow=none;endFill=0;fillColor=#fff2cc;strokeColor=#d6b656;strokeWidth=2;" edge="1" parent="1">
          <mxGeometry relative="1" as="geometry">
            <mxPoint x="220.19" y="220" as="targetPoint" />
            <mxPoint x="210.19" y="240" as="sourcePoint" />
          </mxGeometry>
        </mxCell>
        <mxCell id="IdqvDO2Dhx7yjKu7YwTV-65" style="edgeStyle=none;rounded=0;orthogonalLoop=1;jettySize=auto;html=1;exitX=0;exitY=0;exitDx=0;exitDy=0;entryX=0;entryY=1;entryDx=0;entryDy=0;dashed=1;dashPattern=1 1;endArrow=none;endFill=0;strokeWidth=1;" edge="1" parent="1" source="IdqvDO2Dhx7yjKu7YwTV-67">
          <mxGeometry relative="1" as="geometry">
            <mxPoint x="190.00000000000006" y="250.00000000000006" as="targetPoint" />
          </mxGeometry>
        </mxCell>
        <mxCell id="IdqvDO2Dhx7yjKu7YwTV-66" style="edgeStyle=none;rounded=0;orthogonalLoop=1;jettySize=auto;html=1;exitX=1;exitY=0;exitDx=0;exitDy=0;entryX=1;entryY=1;entryDx=0;entryDy=0;endArrow=none;endFill=0;fillColor=#fff2cc;strokeColor=#d6b656;strokeWidth=2;" edge="1" parent="1" source="IdqvDO2Dhx7yjKu7YwTV-67">
          <mxGeometry relative="1" as="geometry">
            <mxPoint x="210.00000000000006" y="250.00000000000006" as="targetPoint" />
          </mxGeometry>
        </mxCell>
        <mxCell id="IdqvDO2Dhx7yjKu7YwTV-67" value="" style="rounded=0;whiteSpace=wrap;html=1;" vertex="1" parent="1">
          <mxGeometry x="200" y="270" width="10" height="10" as="geometry" />
        </mxCell>
        <mxCell id="IdqvDO2Dhx7yjKu7YwTV-68" value="" style="rounded=0;whiteSpace=wrap;html=1;fontStyle=1" vertex="1" parent="1">
          <mxGeometry x="200.19" y="210" width="10" height="10" as="geometry" />
        </mxCell>
        <mxCell id="IdqvDO2Dhx7yjKu7YwTV-69" style="edgeStyle=none;rounded=0;orthogonalLoop=1;jettySize=auto;html=1;exitX=1;exitY=0;exitDx=0;exitDy=0;entryX=1;entryY=1;entryDx=0;entryDy=0;dashed=1;dashPattern=1 1;endArrow=none;endFill=0;" edge="1" parent="1">
          <mxGeometry relative="1" as="geometry">
            <mxPoint x="210" y="220" as="targetPoint" />
            <mxPoint x="200" y="240" as="sourcePoint" />
          </mxGeometry>
        </mxCell>
        <mxCell id="IdqvDO2Dhx7yjKu7YwTV-70" style="edgeStyle=none;rounded=0;orthogonalLoop=1;jettySize=auto;html=1;exitX=0;exitY=0;exitDx=0;exitDy=0;entryX=0;entryY=1;entryDx=0;entryDy=0;dashed=1;dashPattern=1 1;endArrow=none;endFill=0;" edge="1" parent="1" source="IdqvDO2Dhx7yjKu7YwTV-72" target="IdqvDO2Dhx7yjKu7YwTV-55">
          <mxGeometry relative="1" as="geometry">
            <mxPoint x="169.43" y="310.00000000000006" as="targetPoint" />
          </mxGeometry>
        </mxCell>
        <mxCell id="IdqvDO2Dhx7yjKu7YwTV-71" style="edgeStyle=none;rounded=0;orthogonalLoop=1;jettySize=auto;html=1;exitX=1;exitY=0;exitDx=0;exitDy=0;entryX=1;entryY=1;entryDx=0;entryDy=0;endArrow=none;endFill=0;fillColor=#e1d5e7;strokeColor=#9673a6;strokeWidth=2;" edge="1" parent="1" source="IdqvDO2Dhx7yjKu7YwTV-72">
          <mxGeometry relative="1" as="geometry">
            <mxPoint x="189.43" y="310.00000000000006" as="targetPoint" />
          </mxGeometry>
        </mxCell>
        <mxCell id="IdqvDO2Dhx7yjKu7YwTV-134" style="edgeStyle=none;rounded=0;orthogonalLoop=1;jettySize=auto;html=1;exitX=0;exitY=1;exitDx=0;exitDy=0;entryX=0;entryY=0;entryDx=0;entryDy=0;dashed=1;dashPattern=1 1;endArrow=none;endFill=0;" edge="1" parent="1" source="IdqvDO2Dhx7yjKu7YwTV-72" target="IdqvDO2Dhx7yjKu7YwTV-133">
          <mxGeometry relative="1" as="geometry" />
        </mxCell>
        <mxCell id="IdqvDO2Dhx7yjKu7YwTV-72" value="" style="rounded=0;whiteSpace=wrap;html=1;" vertex="1" parent="1">
          <mxGeometry x="179.43" y="330" width="10" height="10" as="geometry" />
        </mxCell>
        <mxCell id="IdqvDO2Dhx7yjKu7YwTV-74" value="&lt;font style=&quot;font-size: 6px&quot;&gt;conv1&lt;/font&gt;" style="text;html=1;align=center;verticalAlign=middle;resizable=0;points=[];autosize=1;strokeColor=none;" vertex="1" parent="1">
          <mxGeometry x="80" y="230" width="30" height="20" as="geometry" />
        </mxCell>
        <mxCell id="IdqvDO2Dhx7yjKu7YwTV-75" value="&lt;font style=&quot;font-size: 6px&quot;&gt;mp1&lt;/font&gt;" style="text;html=1;align=center;verticalAlign=middle;resizable=0;points=[];autosize=1;strokeColor=none;" vertex="1" parent="1">
          <mxGeometry x="80" y="260" width="30" height="20" as="geometry" />
        </mxCell>
        <mxCell id="IdqvDO2Dhx7yjKu7YwTV-76" value="&lt;font style=&quot;font-size: 6px&quot;&gt;conv2&lt;/font&gt;" style="text;html=1;align=center;verticalAlign=middle;resizable=0;points=[];autosize=1;strokeColor=none;" vertex="1" parent="1">
          <mxGeometry x="80" y="290" width="30" height="20" as="geometry" />
        </mxCell>
        <mxCell id="IdqvDO2Dhx7yjKu7YwTV-77" value="&lt;font style=&quot;font-size: 6px&quot;&gt;mp2&lt;/font&gt;" style="text;html=1;align=center;verticalAlign=middle;resizable=0;points=[];autosize=1;strokeColor=none;" vertex="1" parent="1">
          <mxGeometry x="80" y="320" width="30" height="20" as="geometry" />
        </mxCell>
        <mxCell id="IdqvDO2Dhx7yjKu7YwTV-78" value="&lt;font style=&quot;font-size: 6px&quot;&gt;input&lt;/font&gt;" style="text;html=1;align=center;verticalAlign=middle;resizable=0;points=[];autosize=1;strokeColor=none;" vertex="1" parent="1">
          <mxGeometry x="80" y="200" width="30" height="20" as="geometry" />
        </mxCell>
        <mxCell id="IdqvDO2Dhx7yjKu7YwTV-79" value="" style="rounded=0;whiteSpace=wrap;html=1;" vertex="1" parent="1">
          <mxGeometry x="200" y="300" width="10" height="10" as="geometry" />
        </mxCell>
        <mxCell id="IdqvDO2Dhx7yjKu7YwTV-105" style="edgeStyle=none;rounded=0;orthogonalLoop=1;jettySize=auto;html=1;exitX=0;exitY=0;exitDx=0;exitDy=0;entryX=0;entryY=1;entryDx=0;entryDy=0;dashed=1;dashPattern=1 1;endArrow=none;endFill=0;" edge="1" parent="1" source="IdqvDO2Dhx7yjKu7YwTV-80" target="IdqvDO2Dhx7yjKu7YwTV-67">
          <mxGeometry relative="1" as="geometry" />
        </mxCell>
        <mxCell id="IdqvDO2Dhx7yjKu7YwTV-80" value="" style="rounded=0;whiteSpace=wrap;html=1;" vertex="1" parent="1">
          <mxGeometry x="219.81" y="300" width="10" height="10" as="geometry" />
        </mxCell>
        <mxCell id="IdqvDO2Dhx7yjKu7YwTV-81" value="" style="rounded=0;whiteSpace=wrap;html=1;" vertex="1" parent="1">
          <mxGeometry x="219.62" y="330" width="10" height="10" as="geometry" />
        </mxCell>
        <mxCell id="IdqvDO2Dhx7yjKu7YwTV-82" style="edgeStyle=none;rounded=0;orthogonalLoop=1;jettySize=auto;html=1;exitX=0;exitY=0;exitDx=0;exitDy=0;entryX=0;entryY=1;entryDx=0;entryDy=0;dashed=1;dashPattern=1 1;endArrow=none;endFill=0;" edge="1" parent="1">
          <mxGeometry relative="1" as="geometry">
            <mxPoint x="199.71999999999994" y="310" as="targetPoint" />
            <mxPoint x="219.34000000000006" y="330" as="sourcePoint" />
          </mxGeometry>
        </mxCell>
        <mxCell id="IdqvDO2Dhx7yjKu7YwTV-83" style="edgeStyle=none;rounded=0;orthogonalLoop=1;jettySize=auto;html=1;exitX=1;exitY=0;exitDx=0;exitDy=0;entryX=1;entryY=1;entryDx=0;entryDy=0;dashed=1;dashPattern=1 1;endArrow=none;endFill=0;" edge="1" parent="1">
          <mxGeometry relative="1" as="geometry">
            <mxPoint x="229.34000000000006" y="310" as="targetPoint" />
            <mxPoint x="229.34000000000006" y="330" as="sourcePoint" />
          </mxGeometry>
        </mxCell>
        <mxCell id="IdqvDO2Dhx7yjKu7YwTV-84" style="edgeStyle=none;rounded=0;orthogonalLoop=1;jettySize=auto;html=1;exitX=0;exitY=0;exitDx=0;exitDy=0;entryX=0;entryY=1;entryDx=0;entryDy=0;dashed=1;dashPattern=1 1;endArrow=none;endFill=0;" edge="1" parent="1">
          <mxGeometry relative="1" as="geometry">
            <mxPoint x="180.37999999999994" y="280" as="targetPoint" />
            <mxPoint x="200.19" y="300" as="sourcePoint" />
          </mxGeometry>
        </mxCell>
        <mxCell id="IdqvDO2Dhx7yjKu7YwTV-94" style="edgeStyle=none;rounded=0;orthogonalLoop=1;jettySize=auto;html=1;exitX=1;exitY=1;exitDx=0;exitDy=0;entryX=1;entryY=0;entryDx=0;entryDy=0;dashed=1;dashPattern=1 1;endArrow=none;endFill=0;" edge="1" parent="1" source="IdqvDO2Dhx7yjKu7YwTV-85" target="IdqvDO2Dhx7yjKu7YwTV-79">
          <mxGeometry relative="1" as="geometry" />
        </mxCell>
        <mxCell id="IdqvDO2Dhx7yjKu7YwTV-85" value="" style="rounded=0;whiteSpace=wrap;html=1;" vertex="1" parent="1">
          <mxGeometry x="220.19" y="270" width="10" height="10" as="geometry" />
        </mxCell>
        <mxCell id="IdqvDO2Dhx7yjKu7YwTV-86" value="" style="rounded=0;whiteSpace=wrap;html=1;" vertex="1" parent="1">
          <mxGeometry x="209.53" y="240" width="10" height="10" as="geometry" />
        </mxCell>
        <mxCell id="IdqvDO2Dhx7yjKu7YwTV-87" value="" style="rounded=0;whiteSpace=wrap;html=1;" vertex="1" parent="1">
          <mxGeometry x="219.53" y="240" width="10" height="10" as="geometry" />
        </mxCell>
        <mxCell id="IdqvDO2Dhx7yjKu7YwTV-88" style="edgeStyle=none;rounded=0;orthogonalLoop=1;jettySize=auto;html=1;exitX=0;exitY=0;exitDx=0;exitDy=0;entryX=0;entryY=1;entryDx=0;entryDy=0;dashed=1;dashPattern=1 1;endArrow=none;endFill=0;" edge="1" parent="1">
          <mxGeometry relative="1" as="geometry">
            <mxPoint x="209.34" y="250" as="targetPoint" />
            <mxPoint x="219.34" y="270" as="sourcePoint" />
          </mxGeometry>
        </mxCell>
        <mxCell id="IdqvDO2Dhx7yjKu7YwTV-89" style="edgeStyle=none;rounded=0;orthogonalLoop=1;jettySize=auto;html=1;exitX=1;exitY=0;exitDx=0;exitDy=0;entryX=1;entryY=1;entryDx=0;entryDy=0;dashed=1;dashPattern=1 1;endArrow=none;endFill=0;" edge="1" parent="1">
          <mxGeometry relative="1" as="geometry">
            <mxPoint x="229.34" y="250" as="targetPoint" />
            <mxPoint x="229.34" y="270" as="sourcePoint" />
          </mxGeometry>
        </mxCell>
        <mxCell id="IdqvDO2Dhx7yjKu7YwTV-90" value="" style="rounded=0;whiteSpace=wrap;html=1;fontStyle=1" vertex="1" parent="1">
          <mxGeometry x="230.38" y="210" width="10" height="10" as="geometry" />
        </mxCell>
        <mxCell id="IdqvDO2Dhx7yjKu7YwTV-91" style="edgeStyle=none;rounded=0;orthogonalLoop=1;jettySize=auto;html=1;exitX=1;exitY=0;exitDx=0;exitDy=0;entryX=1;entryY=1;entryDx=0;entryDy=0;dashed=1;dashPattern=1 1;endArrow=none;endFill=0;" edge="1" parent="1">
          <mxGeometry relative="1" as="geometry">
            <mxPoint x="240.38000000000005" y="220" as="targetPoint" />
            <mxPoint x="230.38000000000005" y="240" as="sourcePoint" />
          </mxGeometry>
        </mxCell>
        <mxCell id="IdqvDO2Dhx7yjKu7YwTV-92" value="" style="rounded=0;whiteSpace=wrap;html=1;fontStyle=1" vertex="1" parent="1">
          <mxGeometry x="220.38" y="210" width="10" height="10" as="geometry" />
        </mxCell>
        <mxCell id="IdqvDO2Dhx7yjKu7YwTV-93" style="edgeStyle=none;rounded=0;orthogonalLoop=1;jettySize=auto;html=1;exitX=1;exitY=0;exitDx=0;exitDy=0;entryX=1;entryY=1;entryDx=0;entryDy=0;dashed=1;dashPattern=1 1;endArrow=none;endFill=0;" edge="1" parent="1">
          <mxGeometry relative="1" as="geometry">
            <mxPoint x="230.19" y="220" as="targetPoint" />
            <mxPoint x="220.19" y="240" as="sourcePoint" />
          </mxGeometry>
        </mxCell>
        <mxCell id="IdqvDO2Dhx7yjKu7YwTV-104" style="edgeStyle=none;rounded=0;orthogonalLoop=1;jettySize=auto;html=1;exitX=1;exitY=1;exitDx=0;exitDy=0;entryX=1;entryY=0;entryDx=0;entryDy=0;dashed=1;dashPattern=1 1;endArrow=none;endFill=0;" edge="1" parent="1" source="IdqvDO2Dhx7yjKu7YwTV-95" target="IdqvDO2Dhx7yjKu7YwTV-80">
          <mxGeometry relative="1" as="geometry" />
        </mxCell>
        <mxCell id="IdqvDO2Dhx7yjKu7YwTV-95" value="" style="rounded=0;whiteSpace=wrap;html=1;" vertex="1" parent="1">
          <mxGeometry x="240.38" y="270" width="10" height="10" as="geometry" />
        </mxCell>
        <mxCell id="IdqvDO2Dhx7yjKu7YwTV-96" value="" style="rounded=0;whiteSpace=wrap;html=1;" vertex="1" parent="1">
          <mxGeometry x="229.72" y="240" width="10" height="10" as="geometry" />
        </mxCell>
        <mxCell id="IdqvDO2Dhx7yjKu7YwTV-97" value="" style="rounded=0;whiteSpace=wrap;html=1;" vertex="1" parent="1">
          <mxGeometry x="239.72" y="240" width="10" height="10" as="geometry" />
        </mxCell>
        <mxCell id="IdqvDO2Dhx7yjKu7YwTV-98" style="edgeStyle=none;rounded=0;orthogonalLoop=1;jettySize=auto;html=1;exitX=0;exitY=0;exitDx=0;exitDy=0;entryX=0;entryY=1;entryDx=0;entryDy=0;dashed=1;dashPattern=1 1;endArrow=none;endFill=0;" edge="1" parent="1">
          <mxGeometry relative="1" as="geometry">
            <mxPoint x="229.53000000000003" y="250" as="targetPoint" />
            <mxPoint x="239.53000000000003" y="270" as="sourcePoint" />
          </mxGeometry>
        </mxCell>
        <mxCell id="IdqvDO2Dhx7yjKu7YwTV-99" style="edgeStyle=none;rounded=0;orthogonalLoop=1;jettySize=auto;html=1;exitX=1;exitY=0;exitDx=0;exitDy=0;entryX=1;entryY=1;entryDx=0;entryDy=0;dashed=1;dashPattern=1 1;endArrow=none;endFill=0;" edge="1" parent="1">
          <mxGeometry relative="1" as="geometry">
            <mxPoint x="249.53000000000003" y="250" as="targetPoint" />
            <mxPoint x="249.53000000000003" y="270" as="sourcePoint" />
          </mxGeometry>
        </mxCell>
        <mxCell id="IdqvDO2Dhx7yjKu7YwTV-100" value="" style="rounded=0;whiteSpace=wrap;html=1;fontStyle=1" vertex="1" parent="1">
          <mxGeometry x="250.57" y="210" width="10" height="10" as="geometry" />
        </mxCell>
        <mxCell id="IdqvDO2Dhx7yjKu7YwTV-101" style="edgeStyle=none;rounded=0;orthogonalLoop=1;jettySize=auto;html=1;exitX=1;exitY=0;exitDx=0;exitDy=0;entryX=1;entryY=1;entryDx=0;entryDy=0;dashed=1;dashPattern=1 1;endArrow=none;endFill=0;" edge="1" parent="1">
          <mxGeometry relative="1" as="geometry">
            <mxPoint x="260.5700000000001" y="220" as="targetPoint" />
            <mxPoint x="250.5700000000001" y="240" as="sourcePoint" />
          </mxGeometry>
        </mxCell>
        <mxCell id="IdqvDO2Dhx7yjKu7YwTV-102" value="" style="rounded=0;whiteSpace=wrap;html=1;fontStyle=1" vertex="1" parent="1">
          <mxGeometry x="240.57" y="210" width="10" height="10" as="geometry" />
        </mxCell>
        <mxCell id="IdqvDO2Dhx7yjKu7YwTV-103" style="edgeStyle=none;rounded=0;orthogonalLoop=1;jettySize=auto;html=1;exitX=1;exitY=0;exitDx=0;exitDy=0;entryX=1;entryY=1;entryDx=0;entryDy=0;dashed=1;dashPattern=1 1;endArrow=none;endFill=0;" edge="1" parent="1">
          <mxGeometry relative="1" as="geometry">
            <mxPoint x="250.38000000000005" y="220" as="targetPoint" />
            <mxPoint x="240.38000000000005" y="240" as="sourcePoint" />
          </mxGeometry>
        </mxCell>
        <mxCell id="IdqvDO2Dhx7yjKu7YwTV-114" style="edgeStyle=none;rounded=0;orthogonalLoop=1;jettySize=auto;html=1;exitX=1;exitY=0;exitDx=0;exitDy=0;entryX=1;entryY=1;entryDx=0;entryDy=0;dashed=1;dashPattern=1 1;endArrow=none;endFill=0;" edge="1" parent="1" source="IdqvDO2Dhx7yjKu7YwTV-106" target="IdqvDO2Dhx7yjKu7YwTV-112">
          <mxGeometry relative="1" as="geometry" />
        </mxCell>
        <mxCell id="IdqvDO2Dhx7yjKu7YwTV-106" value="" style="rounded=0;whiteSpace=wrap;html=1;" vertex="1" parent="1">
          <mxGeometry x="240.85" y="300" width="10" height="10" as="geometry" />
        </mxCell>
        <mxCell id="IdqvDO2Dhx7yjKu7YwTV-116" style="edgeStyle=none;rounded=0;orthogonalLoop=1;jettySize=auto;html=1;exitX=0;exitY=0;exitDx=0;exitDy=0;dashed=1;dashPattern=1 1;endArrow=none;endFill=0;" edge="1" parent="1" source="IdqvDO2Dhx7yjKu7YwTV-107">
          <mxGeometry relative="1" as="geometry">
            <mxPoint x="240" y="280" as="targetPoint" />
          </mxGeometry>
        </mxCell>
        <mxCell id="IdqvDO2Dhx7yjKu7YwTV-107" value="" style="rounded=0;whiteSpace=wrap;html=1;" vertex="1" parent="1">
          <mxGeometry x="260.66" y="300" width="10" height="10" as="geometry" />
        </mxCell>
        <mxCell id="IdqvDO2Dhx7yjKu7YwTV-108" value="" style="rounded=0;whiteSpace=wrap;html=1;" vertex="1" parent="1">
          <mxGeometry x="260.47" y="330" width="10" height="10" as="geometry" />
        </mxCell>
        <mxCell id="IdqvDO2Dhx7yjKu7YwTV-109" style="edgeStyle=none;rounded=0;orthogonalLoop=1;jettySize=auto;html=1;exitX=0;exitY=0;exitDx=0;exitDy=0;entryX=0;entryY=1;entryDx=0;entryDy=0;dashed=1;dashPattern=1 1;endArrow=none;endFill=0;" edge="1" parent="1">
          <mxGeometry relative="1" as="geometry">
            <mxPoint x="240.5699999999999" y="310" as="targetPoint" />
            <mxPoint x="260.19000000000005" y="330" as="sourcePoint" />
          </mxGeometry>
        </mxCell>
        <mxCell id="IdqvDO2Dhx7yjKu7YwTV-111" style="edgeStyle=none;rounded=0;orthogonalLoop=1;jettySize=auto;html=1;exitX=0;exitY=0;exitDx=0;exitDy=0;entryX=0;entryY=1;entryDx=0;entryDy=0;dashed=1;dashPattern=1 1;endArrow=none;endFill=0;" edge="1" parent="1">
          <mxGeometry relative="1" as="geometry">
            <mxPoint x="239.99999999999994" y="300" as="sourcePoint" />
            <mxPoint x="220.19" y="280" as="targetPoint" />
          </mxGeometry>
        </mxCell>
        <mxCell id="IdqvDO2Dhx7yjKu7YwTV-112" value="" style="rounded=0;whiteSpace=wrap;html=1;" vertex="1" parent="1">
          <mxGeometry x="260.47" y="270" width="10" height="10" as="geometry" />
        </mxCell>
        <mxCell id="IdqvDO2Dhx7yjKu7YwTV-113" value="" style="rounded=0;whiteSpace=wrap;html=1;" vertex="1" parent="1">
          <mxGeometry x="280.65999999999997" y="270" width="10" height="10" as="geometry" />
        </mxCell>
        <mxCell id="IdqvDO2Dhx7yjKu7YwTV-117" value="" style="rounded=0;whiteSpace=wrap;html=1;" vertex="1" parent="1">
          <mxGeometry x="250.57" y="240" width="10" height="10" as="geometry" />
        </mxCell>
        <mxCell id="IdqvDO2Dhx7yjKu7YwTV-118" value="" style="rounded=0;whiteSpace=wrap;html=1;" vertex="1" parent="1">
          <mxGeometry x="260.57" y="240" width="10" height="10" as="geometry" />
        </mxCell>
        <mxCell id="IdqvDO2Dhx7yjKu7YwTV-119" style="edgeStyle=none;rounded=0;orthogonalLoop=1;jettySize=auto;html=1;exitX=0;exitY=0;exitDx=0;exitDy=0;entryX=0;entryY=1;entryDx=0;entryDy=0;dashed=1;dashPattern=1 1;endArrow=none;endFill=0;" edge="1" parent="1">
          <mxGeometry relative="1" as="geometry">
            <mxPoint x="250.37999999999997" y="250" as="targetPoint" />
            <mxPoint x="260.38" y="270" as="sourcePoint" />
          </mxGeometry>
        </mxCell>
        <mxCell id="IdqvDO2Dhx7yjKu7YwTV-120" style="edgeStyle=none;rounded=0;orthogonalLoop=1;jettySize=auto;html=1;exitX=1;exitY=0;exitDx=0;exitDy=0;entryX=1;entryY=1;entryDx=0;entryDy=0;dashed=1;dashPattern=1 1;endArrow=none;endFill=0;" edge="1" parent="1">
          <mxGeometry relative="1" as="geometry">
            <mxPoint x="270.38" y="250" as="targetPoint" />
            <mxPoint x="270.38" y="270" as="sourcePoint" />
          </mxGeometry>
        </mxCell>
        <mxCell id="IdqvDO2Dhx7yjKu7YwTV-121" value="" style="rounded=0;whiteSpace=wrap;html=1;" vertex="1" parent="1">
          <mxGeometry x="270.65999999999997" y="240" width="10" height="10" as="geometry" />
        </mxCell>
        <mxCell id="IdqvDO2Dhx7yjKu7YwTV-122" value="" style="rounded=0;whiteSpace=wrap;html=1;" vertex="1" parent="1">
          <mxGeometry x="280.65999999999997" y="240" width="10" height="10" as="geometry" />
        </mxCell>
        <mxCell id="IdqvDO2Dhx7yjKu7YwTV-123" style="edgeStyle=none;rounded=0;orthogonalLoop=1;jettySize=auto;html=1;exitX=0;exitY=0;exitDx=0;exitDy=0;entryX=0;entryY=1;entryDx=0;entryDy=0;dashed=1;dashPattern=1 1;endArrow=none;endFill=0;" edge="1" parent="1">
          <mxGeometry relative="1" as="geometry">
            <mxPoint x="270.38" y="250" as="targetPoint" />
            <mxPoint x="280.38" y="270" as="sourcePoint" />
          </mxGeometry>
        </mxCell>
        <mxCell id="IdqvDO2Dhx7yjKu7YwTV-125" value="" style="rounded=0;whiteSpace=wrap;html=1;fontStyle=1" vertex="1" parent="1">
          <mxGeometry x="270.85" y="210" width="10" height="10" as="geometry" />
        </mxCell>
        <mxCell id="IdqvDO2Dhx7yjKu7YwTV-126" style="edgeStyle=none;rounded=0;orthogonalLoop=1;jettySize=auto;html=1;exitX=1;exitY=0;exitDx=0;exitDy=0;entryX=1;entryY=1;entryDx=0;entryDy=0;dashed=1;dashPattern=1 1;endArrow=none;endFill=0;" edge="1" parent="1">
          <mxGeometry relative="1" as="geometry">
            <mxPoint x="280.85000000000014" y="220" as="targetPoint" />
            <mxPoint x="270.85000000000014" y="240" as="sourcePoint" />
          </mxGeometry>
        </mxCell>
        <mxCell id="IdqvDO2Dhx7yjKu7YwTV-127" value="" style="rounded=0;whiteSpace=wrap;html=1;fontStyle=1" vertex="1" parent="1">
          <mxGeometry x="260.85" y="210" width="10" height="10" as="geometry" />
        </mxCell>
        <mxCell id="IdqvDO2Dhx7yjKu7YwTV-128" style="edgeStyle=none;rounded=0;orthogonalLoop=1;jettySize=auto;html=1;exitX=1;exitY=0;exitDx=0;exitDy=0;entryX=1;entryY=1;entryDx=0;entryDy=0;dashed=1;dashPattern=1 1;endArrow=none;endFill=0;" edge="1" parent="1">
          <mxGeometry relative="1" as="geometry">
            <mxPoint x="270.6600000000001" y="220" as="targetPoint" />
            <mxPoint x="260.6600000000001" y="240" as="sourcePoint" />
          </mxGeometry>
        </mxCell>
        <mxCell id="IdqvDO2Dhx7yjKu7YwTV-129" value="" style="rounded=0;whiteSpace=wrap;html=1;fontStyle=1" vertex="1" parent="1">
          <mxGeometry x="291.03999999999996" y="210" width="10" height="10" as="geometry" />
        </mxCell>
        <mxCell id="IdqvDO2Dhx7yjKu7YwTV-131" value="" style="rounded=0;whiteSpace=wrap;html=1;fontStyle=1" vertex="1" parent="1">
          <mxGeometry x="281.03999999999996" y="210" width="10" height="10" as="geometry" />
        </mxCell>
        <mxCell id="IdqvDO2Dhx7yjKu7YwTV-132" style="edgeStyle=none;rounded=0;orthogonalLoop=1;jettySize=auto;html=1;exitX=1;exitY=0;exitDx=0;exitDy=0;entryX=1;entryY=1;entryDx=0;entryDy=0;dashed=1;dashPattern=1 1;endArrow=none;endFill=0;" edge="1" parent="1">
          <mxGeometry relative="1" as="geometry">
            <mxPoint x="290.85000000000014" y="220" as="targetPoint" />
            <mxPoint x="280.85000000000014" y="240" as="sourcePoint" />
          </mxGeometry>
        </mxCell>
        <mxCell id="IdqvDO2Dhx7yjKu7YwTV-171" style="edgeStyle=none;rounded=0;orthogonalLoop=1;jettySize=auto;html=1;exitX=0;exitY=1;exitDx=0;exitDy=0;entryX=0;entryY=0.25;entryDx=0;entryDy=0;dashed=1;dashPattern=1 1;endArrow=none;endFill=0;" edge="1" parent="1" source="IdqvDO2Dhx7yjKu7YwTV-133" target="IdqvDO2Dhx7yjKu7YwTV-169">
          <mxGeometry relative="1" as="geometry" />
        </mxCell>
        <mxCell id="IdqvDO2Dhx7yjKu7YwTV-133" value="" style="rounded=0;whiteSpace=wrap;html=1;" vertex="1" parent="1">
          <mxGeometry x="220.38" y="360" width="10" height="10" as="geometry" />
        </mxCell>
        <mxCell id="IdqvDO2Dhx7yjKu7YwTV-136" value="&lt;font style=&quot;font-size: 6px&quot;&gt;conv3&lt;/font&gt;" style="text;html=1;align=center;verticalAlign=middle;resizable=0;points=[];autosize=1;strokeColor=none;" vertex="1" parent="1">
          <mxGeometry x="80" y="350" width="30" height="20" as="geometry" />
        </mxCell>
        <mxCell id="IdqvDO2Dhx7yjKu7YwTV-137" style="edgeStyle=none;rounded=0;orthogonalLoop=1;jettySize=auto;html=1;exitX=0;exitY=1;exitDx=0;exitDy=0;entryX=0;entryY=0;entryDx=0;entryDy=0;dashed=1;dashPattern=1 1;endArrow=none;endFill=0;" edge="1" parent="1" target="IdqvDO2Dhx7yjKu7YwTV-139">
          <mxGeometry relative="1" as="geometry">
            <mxPoint x="219.53000000000006" y="340" as="sourcePoint" />
          </mxGeometry>
        </mxCell>
        <mxCell id="IdqvDO2Dhx7yjKu7YwTV-138" style="edgeStyle=none;rounded=0;orthogonalLoop=1;jettySize=auto;html=1;exitX=1;exitY=0;exitDx=0;exitDy=0;entryX=1;entryY=1;entryDx=0;entryDy=0;endArrow=none;endFill=0;fillColor=#e1d5e7;strokeColor=#9673a6;" edge="1" parent="1" source="IdqvDO2Dhx7yjKu7YwTV-139">
          <mxGeometry relative="1" as="geometry">
            <mxPoint x="310.57000000000005" y="340" as="targetPoint" />
          </mxGeometry>
        </mxCell>
        <mxCell id="IdqvDO2Dhx7yjKu7YwTV-172" style="edgeStyle=none;rounded=0;orthogonalLoop=1;jettySize=auto;html=1;exitX=1;exitY=1;exitDx=0;exitDy=0;entryX=1;entryY=0.25;entryDx=0;entryDy=0;endArrow=none;endFill=0;fillColor=#e1d5e7;strokeColor=#9673a6;" edge="1" parent="1" source="IdqvDO2Dhx7yjKu7YwTV-139" target="IdqvDO2Dhx7yjKu7YwTV-169">
          <mxGeometry relative="1" as="geometry" />
        </mxCell>
        <mxCell id="IdqvDO2Dhx7yjKu7YwTV-139" value="" style="rounded=0;whiteSpace=wrap;html=1;" vertex="1" parent="1">
          <mxGeometry x="260.48" y="360" width="10" height="10" as="geometry" />
        </mxCell>
        <mxCell id="IdqvDO2Dhx7yjKu7YwTV-149" style="edgeStyle=none;rounded=0;orthogonalLoop=1;jettySize=auto;html=1;exitX=1;exitY=0;exitDx=0;exitDy=0;entryX=1;entryY=1;entryDx=0;entryDy=0;dashed=1;dashPattern=1 1;endArrow=none;endFill=0;" edge="1" parent="1" source="IdqvDO2Dhx7yjKu7YwTV-140" target="IdqvDO2Dhx7yjKu7YwTV-146">
          <mxGeometry relative="1" as="geometry" />
        </mxCell>
        <mxCell id="IdqvDO2Dhx7yjKu7YwTV-150" style="edgeStyle=none;rounded=0;orthogonalLoop=1;jettySize=auto;html=1;exitX=0;exitY=0;exitDx=0;exitDy=0;entryX=0;entryY=0.75;entryDx=0;entryDy=0;dashed=1;dashPattern=1 1;endArrow=none;endFill=0;" edge="1" parent="1" source="IdqvDO2Dhx7yjKu7YwTV-140" target="IdqvDO2Dhx7yjKu7YwTV-112">
          <mxGeometry relative="1" as="geometry" />
        </mxCell>
        <mxCell id="IdqvDO2Dhx7yjKu7YwTV-140" value="" style="rounded=0;whiteSpace=wrap;html=1;" vertex="1" parent="1">
          <mxGeometry x="280.94" y="300" width="10" height="10" as="geometry" />
        </mxCell>
        <mxCell id="IdqvDO2Dhx7yjKu7YwTV-148" style="edgeStyle=none;rounded=0;orthogonalLoop=1;jettySize=auto;html=1;exitX=0;exitY=0;exitDx=0;exitDy=0;dashed=1;dashPattern=1 1;endArrow=none;endFill=0;" edge="1" parent="1" source="IdqvDO2Dhx7yjKu7YwTV-141">
          <mxGeometry relative="1" as="geometry">
            <mxPoint x="280" y="280" as="targetPoint" />
          </mxGeometry>
        </mxCell>
        <mxCell id="IdqvDO2Dhx7yjKu7YwTV-141" value="" style="rounded=0;whiteSpace=wrap;html=1;" vertex="1" parent="1">
          <mxGeometry x="300.75" y="300" width="10" height="10" as="geometry" />
        </mxCell>
        <mxCell id="IdqvDO2Dhx7yjKu7YwTV-142" value="" style="rounded=0;whiteSpace=wrap;html=1;" vertex="1" parent="1">
          <mxGeometry x="300.56" y="330" width="10" height="10" as="geometry" />
        </mxCell>
        <mxCell id="IdqvDO2Dhx7yjKu7YwTV-143" style="edgeStyle=none;rounded=0;orthogonalLoop=1;jettySize=auto;html=1;exitX=0;exitY=0;exitDx=0;exitDy=0;entryX=0;entryY=1;entryDx=0;entryDy=0;dashed=1;dashPattern=1 1;endArrow=none;endFill=0;" edge="1" parent="1">
          <mxGeometry relative="1" as="geometry">
            <mxPoint x="280.6599999999999" y="310" as="targetPoint" />
            <mxPoint x="300.28000000000003" y="330" as="sourcePoint" />
          </mxGeometry>
        </mxCell>
        <mxCell id="IdqvDO2Dhx7yjKu7YwTV-144" style="edgeStyle=none;rounded=0;orthogonalLoop=1;jettySize=auto;html=1;exitX=1;exitY=0;exitDx=0;exitDy=0;entryX=1;entryY=1;entryDx=0;entryDy=0;endArrow=none;endFill=0;fillColor=#e1d5e7;strokeColor=#9673a6;" edge="1" parent="1">
          <mxGeometry relative="1" as="geometry">
            <mxPoint x="310.28000000000003" y="310" as="targetPoint" />
            <mxPoint x="310.28000000000003" y="330" as="sourcePoint" />
          </mxGeometry>
        </mxCell>
        <mxCell id="IdqvDO2Dhx7yjKu7YwTV-145" style="edgeStyle=none;rounded=0;orthogonalLoop=1;jettySize=auto;html=1;exitX=1;exitY=0;exitDx=0;exitDy=0;entryX=1;entryY=1;entryDx=0;entryDy=0;endArrow=none;endFill=0;fillColor=#e1d5e7;strokeColor=#9673a6;" edge="1" parent="1" target="IdqvDO2Dhx7yjKu7YwTV-147">
          <mxGeometry relative="1" as="geometry">
            <mxPoint x="310.75000000000006" y="300" as="sourcePoint" />
          </mxGeometry>
        </mxCell>
        <mxCell id="IdqvDO2Dhx7yjKu7YwTV-146" value="" style="rounded=0;whiteSpace=wrap;html=1;" vertex="1" parent="1">
          <mxGeometry x="300.56" y="270" width="10" height="10" as="geometry" />
        </mxCell>
        <mxCell id="IdqvDO2Dhx7yjKu7YwTV-147" value="" style="rounded=0;whiteSpace=wrap;html=1;" vertex="1" parent="1">
          <mxGeometry x="320.74999999999994" y="270" width="10" height="10" as="geometry" />
        </mxCell>
        <mxCell id="IdqvDO2Dhx7yjKu7YwTV-151" value="" style="rounded=0;whiteSpace=wrap;html=1;" vertex="1" parent="1">
          <mxGeometry x="291.13" y="240" width="10" height="10" as="geometry" />
        </mxCell>
        <mxCell id="IdqvDO2Dhx7yjKu7YwTV-152" value="" style="rounded=0;whiteSpace=wrap;html=1;" vertex="1" parent="1">
          <mxGeometry x="301.13" y="240" width="10" height="10" as="geometry" />
        </mxCell>
        <mxCell id="IdqvDO2Dhx7yjKu7YwTV-153" style="edgeStyle=none;rounded=0;orthogonalLoop=1;jettySize=auto;html=1;exitX=0;exitY=0;exitDx=0;exitDy=0;entryX=0;entryY=1;entryDx=0;entryDy=0;dashed=1;dashPattern=1 1;endArrow=none;endFill=0;" edge="1" parent="1">
          <mxGeometry relative="1" as="geometry">
            <mxPoint x="290.94" y="250" as="targetPoint" />
            <mxPoint x="300.94" y="270" as="sourcePoint" />
          </mxGeometry>
        </mxCell>
        <mxCell id="IdqvDO2Dhx7yjKu7YwTV-154" style="edgeStyle=none;rounded=0;orthogonalLoop=1;jettySize=auto;html=1;exitX=1;exitY=0;exitDx=0;exitDy=0;entryX=1;entryY=1;entryDx=0;entryDy=0;dashed=1;dashPattern=1 1;endArrow=none;endFill=0;" edge="1" parent="1">
          <mxGeometry relative="1" as="geometry">
            <mxPoint x="310.94" y="250" as="targetPoint" />
            <mxPoint x="310.94" y="270" as="sourcePoint" />
          </mxGeometry>
        </mxCell>
        <mxCell id="IdqvDO2Dhx7yjKu7YwTV-155" value="" style="rounded=0;whiteSpace=wrap;html=1;" vertex="1" parent="1">
          <mxGeometry x="311.21999999999997" y="240" width="10" height="10" as="geometry" />
        </mxCell>
        <mxCell id="IdqvDO2Dhx7yjKu7YwTV-156" value="" style="rounded=0;whiteSpace=wrap;html=1;" vertex="1" parent="1">
          <mxGeometry x="321.21999999999997" y="240" width="10" height="10" as="geometry" />
        </mxCell>
        <mxCell id="IdqvDO2Dhx7yjKu7YwTV-157" style="edgeStyle=none;rounded=0;orthogonalLoop=1;jettySize=auto;html=1;exitX=0;exitY=0;exitDx=0;exitDy=0;entryX=0;entryY=1;entryDx=0;entryDy=0;dashed=1;dashPattern=1 1;endArrow=none;endFill=0;" edge="1" parent="1">
          <mxGeometry relative="1" as="geometry">
            <mxPoint x="310.94" y="250" as="targetPoint" />
            <mxPoint x="320.94" y="270" as="sourcePoint" />
          </mxGeometry>
        </mxCell>
        <mxCell id="IdqvDO2Dhx7yjKu7YwTV-158" style="edgeStyle=none;rounded=0;orthogonalLoop=1;jettySize=auto;html=1;exitX=1;exitY=0;exitDx=0;exitDy=0;entryX=1;entryY=1;entryDx=0;entryDy=0;endArrow=none;endFill=0;fillColor=#e1d5e7;strokeColor=#9673a6;" edge="1" parent="1">
          <mxGeometry relative="1" as="geometry">
            <mxPoint x="330.94" y="250" as="targetPoint" />
            <mxPoint x="330.94" y="270" as="sourcePoint" />
          </mxGeometry>
        </mxCell>
        <mxCell id="IdqvDO2Dhx7yjKu7YwTV-159" value="" style="rounded=0;whiteSpace=wrap;html=1;fontStyle=1" vertex="1" parent="1">
          <mxGeometry x="310.74999999999994" y="210" width="10" height="10" as="geometry" />
        </mxCell>
        <mxCell id="IdqvDO2Dhx7yjKu7YwTV-160" style="edgeStyle=none;rounded=0;orthogonalLoop=1;jettySize=auto;html=1;exitX=1;exitY=0;exitDx=0;exitDy=0;entryX=1;entryY=1;entryDx=0;entryDy=0;dashed=1;dashPattern=1 1;endArrow=none;endFill=0;" edge="1" parent="1">
          <mxGeometry relative="1" as="geometry">
            <mxPoint x="320.75000000000017" y="220" as="targetPoint" />
            <mxPoint x="310.75000000000017" y="240" as="sourcePoint" />
          </mxGeometry>
        </mxCell>
        <mxCell id="IdqvDO2Dhx7yjKu7YwTV-161" value="" style="rounded=0;whiteSpace=wrap;html=1;fontStyle=1" vertex="1" parent="1">
          <mxGeometry x="300.74999999999994" y="210" width="10" height="10" as="geometry" />
        </mxCell>
        <mxCell id="IdqvDO2Dhx7yjKu7YwTV-162" style="edgeStyle=none;rounded=0;orthogonalLoop=1;jettySize=auto;html=1;exitX=1;exitY=0;exitDx=0;exitDy=0;entryX=1;entryY=1;entryDx=0;entryDy=0;dashed=1;dashPattern=1 1;endArrow=none;endFill=0;" edge="1" parent="1">
          <mxGeometry relative="1" as="geometry">
            <mxPoint x="310.5600000000001" y="220" as="targetPoint" />
            <mxPoint x="300.5600000000001" y="240" as="sourcePoint" />
          </mxGeometry>
        </mxCell>
        <mxCell id="IdqvDO2Dhx7yjKu7YwTV-163" value="" style="rounded=0;whiteSpace=wrap;html=1;fontStyle=0" vertex="1" parent="1">
          <mxGeometry x="331.40999999999997" y="210" width="10" height="10" as="geometry" />
        </mxCell>
        <mxCell id="IdqvDO2Dhx7yjKu7YwTV-164" style="edgeStyle=none;rounded=0;orthogonalLoop=1;jettySize=auto;html=1;exitX=1;exitY=0;exitDx=0;exitDy=0;entryX=1;entryY=1;entryDx=0;entryDy=0;endArrow=none;endFill=0;fontStyle=0;fillColor=#e1d5e7;strokeColor=#9673a6;strokeWidth=2;" edge="1" parent="1">
          <mxGeometry relative="1" as="geometry">
            <mxPoint x="341.4100000000002" y="220" as="targetPoint" />
            <mxPoint x="331.4100000000002" y="240" as="sourcePoint" />
          </mxGeometry>
        </mxCell>
        <mxCell id="IdqvDO2Dhx7yjKu7YwTV-165" value="" style="rounded=0;whiteSpace=wrap;html=1;fontStyle=0" vertex="1" parent="1">
          <mxGeometry x="321.40999999999997" y="210" width="10" height="10" as="geometry" />
        </mxCell>
        <mxCell id="IdqvDO2Dhx7yjKu7YwTV-166" style="edgeStyle=none;rounded=0;orthogonalLoop=1;jettySize=auto;html=1;exitX=1;exitY=0;exitDx=0;exitDy=0;entryX=1;entryY=1;entryDx=0;entryDy=0;dashed=1;dashPattern=1 1;endArrow=none;endFill=0;fontStyle=0" edge="1" parent="1">
          <mxGeometry relative="1" as="geometry">
            <mxPoint x="331.22000000000014" y="220" as="targetPoint" />
            <mxPoint x="321.22000000000014" y="240" as="sourcePoint" />
          </mxGeometry>
        </mxCell>
        <mxCell id="IdqvDO2Dhx7yjKu7YwTV-167" value="&lt;font style=&quot;font-size: 6px&quot;&gt;mp3&lt;/font&gt;" style="text;html=1;align=center;verticalAlign=middle;resizable=0;points=[];autosize=1;strokeColor=none;" vertex="1" parent="1">
          <mxGeometry x="80" y="380" width="30" height="20" as="geometry" />
        </mxCell>
        <mxCell id="IdqvDO2Dhx7yjKu7YwTV-169" value="" style="rounded=0;whiteSpace=wrap;html=1;" vertex="1" parent="1">
          <mxGeometry x="260.85" y="390" width="10" height="10" as="geometry" />
        </mxCell>
        <mxCell id="IdqvDO2Dhx7yjKu7YwTV-173" value="" style="endArrow=none;html=1;" edge="1" parent="1">
          <mxGeometry width="50" height="50" relative="1" as="geometry">
            <mxPoint x="150" y="220" as="sourcePoint" />
            <mxPoint x="150" y="180" as="targetPoint" />
          </mxGeometry>
        </mxCell>
        <mxCell id="IdqvDO2Dhx7yjKu7YwTV-174" value="&lt;font style=&quot;font-size: 6px&quot;&gt;conv1&lt;/font&gt;" style="text;html=1;align=center;verticalAlign=middle;resizable=0;points=[];autosize=1;strokeColor=none;" vertex="1" parent="1">
          <mxGeometry x="129.81" y="160" width="30" height="20" as="geometry" />
        </mxCell>
        <mxCell id="IdqvDO2Dhx7yjKu7YwTV-175" value="" style="endArrow=none;html=1;" edge="1" parent="1">
          <mxGeometry width="50" height="50" relative="1" as="geometry">
            <mxPoint x="159.72" y="220" as="sourcePoint" />
            <mxPoint x="159.72" y="180" as="targetPoint" />
          </mxGeometry>
        </mxCell>
        <mxCell id="IdqvDO2Dhx7yjKu7YwTV-176" value="&lt;font style=&quot;font-size: 6px&quot;&gt;mp1&lt;/font&gt;" style="text;html=1;align=center;verticalAlign=middle;resizable=0;points=[];autosize=1;strokeColor=none;" vertex="1" parent="1">
          <mxGeometry x="150" y="160" width="30" height="20" as="geometry" />
        </mxCell>
        <mxCell id="IdqvDO2Dhx7yjKu7YwTV-177" value="" style="endArrow=none;html=1;" edge="1" parent="1">
          <mxGeometry width="50" height="50" relative="1" as="geometry">
            <mxPoint x="200.18999999999997" y="220" as="sourcePoint" />
            <mxPoint x="200.18999999999997" y="180" as="targetPoint" />
          </mxGeometry>
        </mxCell>
        <mxCell id="IdqvDO2Dhx7yjKu7YwTV-178" value="&lt;font style=&quot;font-size: 6px&quot;&gt;conv2&lt;/font&gt;" style="text;html=1;align=center;verticalAlign=middle;resizable=0;points=[];autosize=1;strokeColor=none;" vertex="1" parent="1">
          <mxGeometry x="189.43" y="160" width="30" height="20" as="geometry" />
        </mxCell>
        <mxCell id="IdqvDO2Dhx7yjKu7YwTV-179" value="" style="endArrow=none;html=1;" edge="1" parent="1">
          <mxGeometry width="50" height="50" relative="1" as="geometry">
            <mxPoint x="220.18999999999994" y="220" as="sourcePoint" />
            <mxPoint x="220.18999999999994" y="180" as="targetPoint" />
          </mxGeometry>
        </mxCell>
        <mxCell id="IdqvDO2Dhx7yjKu7YwTV-180" value="&lt;font style=&quot;font-size: 6px&quot;&gt;mp2&lt;/font&gt;" style="text;html=1;align=center;verticalAlign=middle;resizable=0;points=[];autosize=1;strokeColor=none;" vertex="1" parent="1">
          <mxGeometry x="210.85" y="160" width="30" height="20" as="geometry" />
        </mxCell>
        <mxCell id="IdqvDO2Dhx7yjKu7YwTV-181" value="" style="endArrow=none;html=1;" edge="1" parent="1">
          <mxGeometry width="50" height="50" relative="1" as="geometry">
            <mxPoint x="300.74999999999994" y="220" as="sourcePoint" />
            <mxPoint x="300.74999999999994" y="180" as="targetPoint" />
          </mxGeometry>
        </mxCell>
        <mxCell id="IdqvDO2Dhx7yjKu7YwTV-182" value="&lt;font style=&quot;font-size: 6px&quot;&gt;conv3&lt;/font&gt;" style="text;html=1;align=center;verticalAlign=middle;resizable=0;points=[];autosize=1;strokeColor=none;" vertex="1" parent="1">
          <mxGeometry x="290.56" y="160" width="30" height="20" as="geometry" />
        </mxCell>
        <mxCell id="IdqvDO2Dhx7yjKu7YwTV-183" value="" style="endArrow=none;html=1;" edge="1" parent="1">
          <mxGeometry width="50" height="50" relative="1" as="geometry">
            <mxPoint x="341.41" y="220" as="sourcePoint" />
            <mxPoint x="341.41" y="180" as="targetPoint" />
          </mxGeometry>
        </mxCell>
        <mxCell id="IdqvDO2Dhx7yjKu7YwTV-184" value="&lt;font style=&quot;font-size: 6px&quot;&gt;mp3&lt;/font&gt;" style="text;html=1;align=center;verticalAlign=middle;resizable=0;points=[];autosize=1;strokeColor=none;" vertex="1" parent="1">
          <mxGeometry x="330.75" y="160" width="30" height="20" as="geometry" />
        </mxCell>
        <mxCell id="IdqvDO2Dhx7yjKu7YwTV-188" style="edgeStyle=none;orthogonalLoop=1;jettySize=auto;html=1;exitX=1;exitY=0;exitDx=0;exitDy=0;entryX=1;entryY=1;entryDx=0;entryDy=0;endArrow=none;endFill=0;fillColor=#fad7ac;strokeColor=#b46504;strokeWidth=2;curved=1;" edge="1" parent="1">
          <mxGeometry relative="1" as="geometry">
            <mxPoint x="290.38" y="250" as="targetPoint" />
            <mxPoint x="290.38" y="270" as="sourcePoint" />
          </mxGeometry>
        </mxCell>
        <mxCell id="IdqvDO2Dhx7yjKu7YwTV-189" style="edgeStyle=none;orthogonalLoop=1;jettySize=auto;html=1;exitX=1;exitY=0;exitDx=0;exitDy=0;entryX=1;entryY=1;entryDx=0;entryDy=0;endArrow=none;endFill=0;fillColor=#fad7ac;strokeColor=#b46504;strokeWidth=2;curved=1;" edge="1" parent="1">
          <mxGeometry relative="1" as="geometry">
            <mxPoint x="301.0400000000003" y="220" as="targetPoint" />
            <mxPoint x="291.0400000000003" y="240" as="sourcePoint" />
          </mxGeometry>
        </mxCell>
        <mxCell id="IdqvDO2Dhx7yjKu7YwTV-190" style="edgeStyle=none;orthogonalLoop=1;jettySize=auto;html=1;exitX=1;exitY=0;exitDx=0;exitDy=0;entryX=1;entryY=1;entryDx=0;entryDy=0;endArrow=none;endFill=0;fillColor=#fad7ac;strokeColor=#b46504;strokeWidth=2;curved=1;" edge="1" parent="1">
          <mxGeometry relative="1" as="geometry">
            <mxPoint x="230.38" y="360" as="sourcePoint" />
            <mxPoint x="270.4699999999999" y="340" as="targetPoint" />
          </mxGeometry>
        </mxCell>
        <mxCell id="IdqvDO2Dhx7yjKu7YwTV-191" style="edgeStyle=none;orthogonalLoop=1;jettySize=auto;html=1;exitX=1;exitY=0;exitDx=0;exitDy=0;entryX=1;entryY=1;entryDx=0;entryDy=0;endArrow=none;endFill=0;fillColor=#fad7ac;strokeColor=#b46504;strokeWidth=2;curved=1;" edge="1" parent="1">
          <mxGeometry relative="1" as="geometry">
            <mxPoint x="270.19000000000005" y="310" as="targetPoint" />
            <mxPoint x="270.19000000000005" y="330" as="sourcePoint" />
          </mxGeometry>
        </mxCell>
        <mxCell id="IdqvDO2Dhx7yjKu7YwTV-192" style="edgeStyle=none;orthogonalLoop=1;jettySize=auto;html=1;exitX=1;exitY=0;exitDx=0;exitDy=0;entryX=1;entryY=1;entryDx=0;entryDy=0;endArrow=none;endFill=0;fillColor=#fad7ac;strokeColor=#b46504;strokeWidth=2;curved=1;" edge="1" parent="1">
          <mxGeometry relative="1" as="geometry">
            <mxPoint x="270.6600000000002" y="300" as="sourcePoint" />
            <mxPoint x="290.65999999999997" y="280" as="targetPoint" />
          </mxGeometry>
        </mxCell>
        <mxCell id="IdqvDO2Dhx7yjKu7YwTV-194" style="edgeStyle=none;rounded=0;orthogonalLoop=1;jettySize=auto;html=1;exitX=1;exitY=0;exitDx=0;exitDy=0;entryX=1;entryY=1;entryDx=0;entryDy=0;endArrow=none;endFill=0;fillColor=#e1d5e7;strokeColor=#9673a6;strokeWidth=2;" edge="1" parent="1">
          <mxGeometry relative="1" as="geometry">
            <mxPoint x="310.75" y="300" as="sourcePoint" />
            <mxPoint x="330.75" y="280" as="targetPoint" />
          </mxGeometry>
        </mxCell>
        <mxCell id="IdqvDO2Dhx7yjKu7YwTV-195" style="edgeStyle=none;rounded=0;orthogonalLoop=1;jettySize=auto;html=1;exitX=1;exitY=0;exitDx=0;exitDy=0;entryX=1;entryY=1;entryDx=0;entryDy=0;endArrow=none;endFill=0;fillColor=#e1d5e7;strokeColor=#9673a6;strokeWidth=2;" edge="1" parent="1">
          <mxGeometry relative="1" as="geometry">
            <mxPoint x="310.28" y="310" as="targetPoint" />
            <mxPoint x="310.28" y="330" as="sourcePoint" />
          </mxGeometry>
        </mxCell>
        <mxCell id="IdqvDO2Dhx7yjKu7YwTV-196" style="edgeStyle=none;rounded=0;orthogonalLoop=1;jettySize=auto;html=1;exitX=1;exitY=0;exitDx=0;exitDy=0;entryX=1;entryY=1;entryDx=0;entryDy=0;endArrow=none;endFill=0;fillColor=#e1d5e7;strokeColor=#9673a6;strokeWidth=2;" edge="1" parent="1">
          <mxGeometry relative="1" as="geometry">
            <mxPoint x="310.57000000000005" y="340" as="targetPoint" />
            <mxPoint x="270.4799999999999" y="360" as="sourcePoint" />
          </mxGeometry>
        </mxCell>
        <mxCell id="IdqvDO2Dhx7yjKu7YwTV-197" style="edgeStyle=none;rounded=0;orthogonalLoop=1;jettySize=auto;html=1;exitX=1;exitY=1;exitDx=0;exitDy=0;entryX=1;entryY=0.25;entryDx=0;entryDy=0;endArrow=none;endFill=0;fillColor=#e1d5e7;strokeColor=#9673a6;strokeWidth=2;" edge="1" parent="1">
          <mxGeometry relative="1" as="geometry">
            <mxPoint x="270.4799999999999" y="370" as="sourcePoint" />
            <mxPoint x="270.85" y="392.5" as="targetPoint" />
          </mxGeometry>
        </mxCell>
        <mxCell id="IdqvDO2Dhx7yjKu7YwTV-198" style="edgeStyle=none;rounded=0;orthogonalLoop=1;jettySize=auto;html=1;exitX=1;exitY=0;exitDx=0;exitDy=0;entryX=1;entryY=1;entryDx=0;entryDy=0;endArrow=none;endFill=0;fillColor=#e1d5e7;strokeColor=#9673a6;strokeWidth=2;" edge="1" parent="1">
          <mxGeometry relative="1" as="geometry">
            <mxPoint x="330.94000000000017" y="250" as="targetPoint" />
            <mxPoint x="330.94000000000017" y="270" as="sourcePoint" />
          </mxGeometry>
        </mxCell>
      </root>
    </mxGraphModel>
  </diagram>
</mxfile>
